<!DOCTYPE svg PUBLIC "-//W3C//DTD SVG 1.1//EN" "http://www.w3.org/Graphics/SVG/1.1/DTD/svg11.dtd">
<!-- Uploaded to: SVG Repo, www.svgrepo.com, Transformed by: SVG Repo Mixer Tools -->
<svg version="1.1" id="Layer_1" xmlns="http://www.w3.org/2000/svg" xmlns:xlink="http://www.w3.org/1999/xlink" viewBox="0 0 511.99 511.99" xml:space="preserve" width="800px" height="800px" fill="#000000" stroke="#000000" stroke-width="12.287735999999999">
<g id="SVGRepo_bgCarrier" stroke-width="0"/>
<g id="SVGRepo_tracerCarrier" stroke-linecap="round" stroke-linejoin="round"/>
<g id="SVGRepo_iconCarrier"> <ellipse style="fill:#000000;" cx="256.714" cy="262.716" rx="124.939" ry="120.918"/> <circle style="fill:#000000;" cx="236.558" cy="238.538" r="88.668"/> <g> <path style="fill:#1D1D1B;" d="M255.991,394.764c-72.956,0-132.31-59.354-132.31-132.31s59.354-132.31,132.31-132.31 s132.31,59.354,132.31,132.31S328.948,394.764,255.991,394.764z M255.991,145.769c-64.34,0-116.685,52.344-116.685,116.685 s52.344,116.685,116.685,116.685s116.685-52.344,116.685-116.685C372.676,198.114,320.332,145.769,255.991,145.769z"/> <rect x="248.183" y="3.883" style="fill:#1D1D1B;" width="15.625" height="86.189"/> <rect x="74.401" y="89.567" transform="matrix(-0.6428 -0.766 0.766 -0.6428 118.4272 249.9793)" style="fill:#1D1D1B;" width="86.186" height="15.625"/> <rect x="0.702" y="217.221" transform="matrix(-0.9848 -0.1736 0.1736 -0.9848 47.8597 454.252)" style="fill:#1D1D1B;" width="86.187" height="15.625"/> <rect x="61.579" y="327.101" transform="matrix(-0.5 -0.866 0.866 -0.5 -216.507 615.3895)" style="fill:#1D1D1B;" width="15.625" height="86.187"/> <rect x="174.483" y="421.844" transform="matrix(-0.9397 -0.342 0.342 -0.9397 194.5894 964.1854)" style="fill:#1D1D1B;" width="15.625" height="86.189"/> <rect x="286.587" y="457.114" transform="matrix(-0.342 -0.9397 0.9397 -0.342 5.5404 933.7332)" style="fill:#1D1D1B;" width="86.189" height="15.625"/> <rect x="399.497" y="362.371" transform="matrix(-0.866 -0.5 0.5 -0.866 640.7855 912.0692)" style="fill:#1D1D1B;" width="86.187" height="15.625"/> <rect x="460.38" y="181.948" transform="matrix(-0.1737 -0.9848 0.9848 -0.1737 327.8961 725.2079)" style="fill:#1D1D1B;" width="15.625" height="86.189"/> <rect x="386.672" y="54.3" transform="matrix(-0.766 -0.6428 0.6428 -0.766 634.0616 425.5793)" style="fill:#1D1D1B;" width="15.625" height="86.186"/> </g> </g>
</svg>